<svg xmlns="http://www.w3.org/2000/svg" viewBox="0 0 1200 600">
<rect width="1200" height="600" fill="#FAF7F0"/>
<ellipse cx="295" cy="265" rx="180" ry="160" fill="#2D5A1B" opacity="0.06"/><ellipse cx="805" cy="285" rx="180" ry="160" fill="#1A56A0" opacity="0.06"/><line x1="200" y1="180" x2="380" y2="120" stroke="#DDD6BE" stroke-width="2"/><line x1="200" y1="180" x2="360" y2="300" stroke="#DDD6BE" stroke-width="2"/><line x1="200" y1="180" x2="220" y2="380" stroke="#DDD6BE" stroke-width="2"/><line x1="380" y1="120" x2="360" y2="300" stroke="#DDD6BE" stroke-width="2"/><line x1="360" y1="300" x2="220" y2="380" stroke="#DDD6BE" stroke-width="2"/><line x1="700" y1="200" x2="880" y2="150" stroke="#DDD6BE" stroke-width="2"/><line x1="700" y1="200" x2="760" y2="420" stroke="#DDD6BE" stroke-width="2"/><line x1="880" y1="150" x2="920" y2="360" stroke="#DDD6BE" stroke-width="2"/><line x1="920" y1="360" x2="760" y2="420" stroke="#DDD6BE" stroke-width="2"/><line x1="380" y1="120" x2="700" y2="200" stroke="#E8630A" stroke-width="3"/><circle cx="200" cy="180" r="32" fill="#2D5A1B" stroke="white" stroke-width="2"/><text x="200" y="180" text-anchor="middle" dominant-baseline="central" font-family="monospace" font-size="27.2" fill="white" font-weight="700">0</text><rect x="184" y="128" width="9" height="8.951474437010724" fill="#2D5A1B" opacity="0.6" rx="1"/><rect x="195" y="128" width="9" height="13.12417603565544" fill="#2D5A1B" opacity="0.6" rx="1"/><rect x="206" y="128" width="9" height="14.681549049809764" fill="#2D5A1B" opacity="0.6" rx="1"/><rect x="183" y="127" width="34" height="22" fill="rgba(255,255,255,0.7)" rx="2"/><rect x="184" y="139.1533781192882" width="9" height="9.846621880711798" fill="#2D5A1B" opacity="0.7" rx="1"/><rect x="195" y="134.56340636077903" width="9" height="14.436593639220984" fill="#2D5A1B" opacity="0.7" rx="1"/><rect x="206" y="132.85029604520926" width="9" height="16.14970395479074" fill="#2D5A1B" opacity="0.7" rx="1"/><circle cx="380" cy="120" r="32" fill="#2D5A1B" stroke="white" stroke-width="2"/><text x="380" y="120" text-anchor="middle" dominant-baseline="central" font-family="monospace" font-size="27.2" fill="white" font-weight="700">1</text><rect x="364" y="68" width="9" height="17.455102311592412" fill="#2D5A1B" opacity="0.6" rx="1"/><rect x="375" y="68" width="9" height="10.065212155348549" fill="#2D5A1B" opacity="0.6" rx="1"/><rect x="386" y="68" width="9" height="14.818701585136116" fill="#2D5A1B" opacity="0.6" rx="1"/><rect x="363" y="67" width="34" height="22" fill="rgba(255,255,255,0.7)" rx="2"/><rect x="364" y="69.79938745724834" width="9" height="19.200612542751653" fill="#2D5A1B" opacity="0.7" rx="1"/><rect x="375" y="77.92826662911659" width="9" height="11.071733370883404" fill="#2D5A1B" opacity="0.7" rx="1"/><rect x="386" y="72.69942825635027" width="9" height="16.300571743649726" fill="#2D5A1B" opacity="0.7" rx="1"/><circle cx="360" cy="300" r="32" fill="#2D5A1B" stroke="white" stroke-width="2"/><text x="360" y="300" text-anchor="middle" dominant-baseline="central" font-family="monospace" font-size="27.2" fill="white" font-weight="700">2</text><rect x="344" y="248" width="9" height="2.642271161284402" fill="#2D5A1B" opacity="0.6" rx="1"/><rect x="355" y="248" width="9" height="11.94216404892215" fill="#2D5A1B" opacity="0.6" rx="1"/><rect x="366" y="248" width="9" height="19.651965454158905" fill="#2D5A1B" opacity="0.6" rx="1"/><rect x="343" y="247" width="34" height="22" fill="rgba(255,255,255,0.7)" rx="2"/><rect x="344" y="266.0935017225872" width="9" height="2.906498277412842" fill="#2D5A1B" opacity="0.7" rx="1"/><rect x="355" y="255.86361954618565" width="9" height="13.136380453814365" fill="#2D5A1B" opacity="0.7" rx="1"/><rect x="366" y="247.3828380004252" width="9" height="21.617161999574797" fill="#2D5A1B" opacity="0.7" rx="1"/><circle cx="220" cy="380" r="32" fill="#2D5A1B" stroke="white" stroke-width="2"/><text x="220" y="380" text-anchor="middle" dominant-baseline="central" font-family="monospace" font-size="27.2" fill="white" font-weight="700">3</text><rect x="204" y="328" width="9" height="12.569634482513507" fill="#2D5A1B" opacity="0.6" rx="1"/><rect x="215" y="328" width="9" height="10.39653713177918" fill="#2D5A1B" opacity="0.6" rx="1"/><rect x="226" y="328" width="9" height="6.147274768898676" fill="#2D5A1B" opacity="0.6" rx="1"/><rect x="203" y="327" width="34" height="22" fill="rgba(255,255,255,0.7)" rx="2"/><rect x="204" y="335.1734020692351" width="9" height="13.826597930764859" fill="#2D5A1B" opacity="0.7" rx="1"/><rect x="215" y="337.5638091550429" width="9" height="11.436190844957098" fill="#2D5A1B" opacity="0.7" rx="1"/><rect x="226" y="342.23799775421145" width="9" height="6.762002245788544" fill="#2D5A1B" opacity="0.7" rx="1"/><circle cx="700" cy="200" r="32" fill="#1A56A0" stroke="white" stroke-width="2"/><text x="700" y="200" text-anchor="middle" dominant-baseline="central" font-family="monospace" font-size="27.2" fill="white" font-weight="700">4</text><rect x="684" y="148" width="9" height="8.42970454121959" fill="#1A56A0" opacity="0.6" rx="1"/><rect x="695" y="148" width="9" height="7.362514278797034" fill="#1A56A0" opacity="0.6" rx="1"/><rect x="706" y="148" width="9" height="7.59877090562777" fill="#1A56A0" opacity="0.6" rx="1"/><rect x="683" y="147" width="34" height="22" fill="rgba(255,255,255,0.7)" rx="2"/><rect x="684" y="159.72732500465844" width="9" height="9.272674995341548" fill="#1A56A0" opacity="0.7" rx="1"/><rect x="695" y="160.90123429332326" width="9" height="8.098765706676737" fill="#1A56A0" opacity="0.7" rx="1"/><rect x="706" y="160.64135200380946" width="9" height="8.358647996190546" fill="#1A56A0" opacity="0.7" rx="1"/><circle cx="880" cy="150" r="32" fill="#1A56A0" stroke="white" stroke-width="2"/><text x="880" y="150" text-anchor="middle" dominant-baseline="central" font-family="monospace" font-size="27.2" fill="white" font-weight="700">5</text><rect x="864" y="98" width="9" height="4.01558135430129" fill="#1A56A0" opacity="0.6" rx="1"/><rect x="875" y="98" width="9" height="2.5693856090146765" fill="#1A56A0" opacity="0.6" rx="1"/><rect x="886" y="98" width="9" height="10.672771231595009" fill="#1A56A0" opacity="0.6" rx="1"/><rect x="863" y="97" width="34" height="22" fill="rgba(255,255,255,0.7)" rx="2"/><rect x="864" y="114.58286051026857" width="9" height="4.417139489731419" fill="#1A56A0" opacity="0.7" rx="1"/><rect x="875" y="116.17367583008385" width="9" height="2.8263241699161443" fill="#1A56A0" opacity="0.7" rx="1"/><rect x="886" y="107.2599516452455" width="9" height="11.74004835475451" fill="#1A56A0" opacity="0.7" rx="1"/><circle cx="920" cy="360" r="32" fill="#1A56A0" stroke="white" stroke-width="2"/><text x="920" y="360" text-anchor="middle" dominant-baseline="central" font-family="monospace" font-size="27.2" fill="white" font-weight="700">6</text><rect x="904" y="308" width="9" height="14.41983164691472" fill="#1A56A0" opacity="0.6" rx="1"/><rect x="915" y="308" width="9" height="4.463603310561447" fill="#1A56A0" opacity="0.6" rx="1"/><rect x="926" y="308" width="9" height="18.96870782860885" fill="#1A56A0" opacity="0.6" rx="1"/><rect x="903" y="307" width="34" height="22" fill="rgba(255,255,255,0.7)" rx="2"/><rect x="904" y="313.13818518839383" width="9" height="15.861814811606193" fill="#1A56A0" opacity="0.7" rx="1"/><rect x="915" y="324.0900363583824" width="9" height="4.909963641617591" fill="#1A56A0" opacity="0.7" rx="1"/><rect x="926" y="308.13442138853026" width="9" height="20.865578611469733" fill="#1A56A0" opacity="0.7" rx="1"/><circle cx="760" cy="420" r="32" fill="#1A56A0" stroke="white" stroke-width="2"/><text x="760" y="420" text-anchor="middle" dominant-baseline="central" font-family="monospace" font-size="27.2" fill="white" font-weight="700">7</text><rect x="744" y="368" width="9" height="14.841131275011072" fill="#1A56A0" opacity="0.6" rx="1"/><rect x="755" y="368" width="9" height="8.107013335861094" fill="#1A56A0" opacity="0.6" rx="1"/><rect x="766" y="368" width="9" height="18.617348371714144" fill="#1A56A0" opacity="0.6" rx="1"/><rect x="743" y="367" width="34" height="22" fill="rgba(255,255,255,0.7)" rx="2"/><rect x="744" y="372.67475559748783" width="9" height="16.32524440251218" fill="#1A56A0" opacity="0.7" rx="1"/><rect x="755" y="380.0822853305528" width="9" height="8.917714669447202" fill="#1A56A0" opacity="0.7" rx="1"/><rect x="766" y="368.5209167911144" width="9" height="20.47908320888556" fill="#1A56A0" opacity="0.7" rx="1"/><text x="295" y="510" text-anchor="middle" font-family="sans-serif" font-size="14" fill="#2D5A1B" font-weight="600">Community A</text><text x="805" y="510" text-anchor="middle" font-family="sans-serif" font-size="14" fill="#1A56A0" font-weight="600">Community B</text><text x="600" y="100" text-anchor="middle" font-family="sans-serif" font-size="14" fill="#E8630A" font-style="italic">bridge edge</text><defs><marker id="marr" markerWidth="7" markerHeight="7" refX="5" refY="3" orient="auto"><path d="M0,0 L0,6 L7,3 z" fill="#E8630A"/></marker></defs><line x1="360" y1="135" x2="375" y2="285" stroke="#E8630A" stroke-width="2.5" stroke-dasharray="6 3" marker-end="url(#marr)"/>
<text x="40" y="570" font-family="Georgia,serif" font-size="18" fill="#1C3A0E" font-weight="700">Graph Neural Networks — Interactive Explorer</text>
</svg>