<svg xmlns="http://www.w3.org/2000/svg" viewBox="0 0 1200 600">
<rect width="1200" height="600" fill="#FAF7F0"/>
<rect x="100" y="50" width="1000" height="460" fill="white" rx="8" stroke="#C8BE9A"/><line x1="100" y1="50" x2="100" y2="510" stroke="#E8E0CC" stroke-width="0.8"/><line x1="200" y1="50" x2="200" y2="510" stroke="#E8E0CC" stroke-width="0.8"/><line x1="300" y1="50" x2="300" y2="510" stroke="#E8E0CC" stroke-width="0.8"/><line x1="400" y1="50" x2="400" y2="510" stroke="#E8E0CC" stroke-width="0.8"/><line x1="500" y1="50" x2="500" y2="510" stroke="#E8E0CC" stroke-width="0.8"/><line x1="600" y1="50" x2="600" y2="510" stroke="#E8E0CC" stroke-width="0.8"/><line x1="700" y1="50" x2="700" y2="510" stroke="#E8E0CC" stroke-width="0.8"/><line x1="800" y1="50" x2="800" y2="510" stroke="#E8E0CC" stroke-width="0.8"/><line x1="900" y1="50" x2="900" y2="510" stroke="#E8E0CC" stroke-width="0.8"/><line x1="1000" y1="50" x2="1000" y2="510" stroke="#E8E0CC" stroke-width="0.8"/><line x1="1100" y1="50" x2="1100" y2="510" stroke="#E8E0CC" stroke-width="0.8"/><line x1="100" y1="50" x2="1100" y2="50" stroke="#E8E0CC" stroke-width="0.8"/><line x1="100" y1="107.5" x2="1100" y2="107.5" stroke="#E8E0CC" stroke-width="0.8"/><line x1="100" y1="165" x2="1100" y2="165" stroke="#E8E0CC" stroke-width="0.8"/><line x1="100" y1="222.5" x2="1100" y2="222.5" stroke="#E8E0CC" stroke-width="0.8"/><line x1="100" y1="280" x2="1100" y2="280" stroke="#E8E0CC" stroke-width="0.8"/><line x1="100" y1="337.5" x2="1100" y2="337.5" stroke="#E8E0CC" stroke-width="0.8"/><line x1="100" y1="395" x2="1100" y2="395" stroke="#E8E0CC" stroke-width="0.8"/><line x1="100" y1="452.5" x2="1100" y2="452.5" stroke="#E8E0CC" stroke-width="0.8"/><line x1="100" y1="510" x2="1100" y2="510" stroke="#E8E0CC" stroke-width="0.8"/><line x1="100" y1="280" x2="1100" y2="280" stroke="#C8BE9A" stroke-width="1.5"/><line x1="600" y1="50" x2="600" y2="510" stroke="#C8BE9A" stroke-width="1.5"/><polyline points="100,312.8571428571429 600,312.8571428571429 1100,-212.8571428571429" fill="none" stroke="#2D5A1B" stroke-width="3" stroke-linecap="round" stroke-linejoin="round" /><polyline points="100,310.4932409764108 125.00000000000003,309.9813186769657 150.00000000000006,309.3615379870405 175.00000000000006,308.61259606820363 200.00000000000009,307.7096478609967 225.0000000000001,306.62402809666264 250.00000000000014,305.32310831043435 275.0000000000001,303.7703790405887 300.00000000000017,301.92587417508446 325.0000000000002,299.74707857284136 350.0000000000002,297.1904731056645 375.00000000000017,294.21386004165015 400.00000000000017,290.77955918903 425.00000000000017,286.85845392484214 450.0000000000002,282.4346858312994 475.00000000000017,277.5105560485149 500.0000000000001,272.1109318053433 525.0000000000002,266.28625738967594 550.0000000000002,260.1132353290651 575.0000000000002,253.69246821821133 600.0000000000001,247.1428571428571 625.0000000000001,240.59324606750283 650.0000000000001,234.17247895664912 675.0000000000002,227.99945689603828 700.0000000000002,222.17478248037088 725.0000000000002,216.77515823719932 750.0000000000001,211.8510284544148 775.0000000000001,207.42726036087208 800.0000000000002,203.5061550966842 825.0000000000001,200.07185424406407 850.0000000000002,197.0952411800497 875.0000000000001,194.53863571287286 900.0000000000002,192.35984011062976 925.0000000000002,190.51533524512553 950.0000000000003,188.96260597527987 975.0000000000002,187.66168618905164 1000.0000000000003,186.57606642471757 1025.0000000000002,185.6731182175106 1050.0000000000005,184.92417629867379 1075.0000000000005,184.30439560874856" fill="none" stroke="#E8630A" stroke-width="3" stroke-linecap="round" stroke-linejoin="round" /><polyline points="100,444.1975651085631 125.00000000000003,444.1542328518534 150.00000000000006,444.08961527796293 175.00000000000006,443.993276242791 200.00000000000009,443.84968657321133 225.0000000000001,443.6357676273989 250.00000000000014,443.31728551214826 275.0000000000001,442.84360143214445 300.00000000000017,442.1401241540265 325.0000000000002,441.0976685184193 350.0000000000002,439.5579105242502 375.00000000000017,437.29450454550954 400.00000000000017,433.9907242934219 425.00000000000017,429.2176451922973 450.0000000000002,422.4231769215975 475.00000000000017,412.9523747827576 500.0000000000001,400.13054694948863 525.0000000000002,383.4408002340274 550.0000000000002,362.7932921821151 575.0000000000002,338.79789922955865 600.0000000000001,312.85714285714266 625.0000000000001,286.91638648472673 650.0000000000001,262.9209935321703 675.0000000000002,242.2734854802581 700.0000000000002,225.58373876479686 725.0000000000002,212.761910931528 750.0000000000001,203.29110879268808 775.0000000000001,196.49664052198835 800.0000000000002,191.72356142086375 825.0000000000001,188.41978116877613 850.0000000000002,186.15637519003553 875.0000000000001,184.61661719586635 900.0000000000002,183.57416156025914 925.0000000000002,182.8706842821412 950.0000000000003,182.39700020213746 975.0000000000002,182.07851808688685 1000.0000000000003,181.8645991410744 1025.0000000000002,181.7210094714947 1050.0000000000005,181.6246704363228 1075.0000000000005,181.56005286243237" fill="none" stroke="#1A56A0" stroke-width="3" stroke-linecap="round" stroke-linejoin="round" /><polyline points="100,333.88571428571424 600,312.8571428571429 1100,-212.8571428571429" fill="none" stroke="#7B3FC4" stroke-width="3" stroke-linecap="round" stroke-linejoin="round" /><line x1="120" y1="545" x2="150" y2="545" stroke="#2D5A1B" stroke-width="3"/><text x="158" y="550" font-family="sans-serif" font-size="16" fill="#888">ReLU</text><line x1="360" y1="545" x2="390" y2="545" stroke="#E8630A" stroke-width="3"/><text x="398" y="550" font-family="sans-serif" font-size="16" fill="#888">Sigmoid</text><line x1="600" y1="545" x2="630" y2="545" stroke="#1A56A0" stroke-width="3"/><text x="638" y="550" font-family="sans-serif" font-size="16" fill="#888">Tanh</text><line x1="840" y1="545" x2="870" y2="545" stroke="#7B3FC4" stroke-width="3"/><text x="878" y="550" font-family="sans-serif" font-size="16" fill="#888">Leaky ReLU</text><text x="608" y="70" font-family="sans-serif" font-size="13" fill="#888">f(x)</text><text x="1085" y="272" font-family="sans-serif" font-size="13" fill="#888">x</text>
<text x="40" y="570" font-family="Georgia,serif" font-size="18" fill="#1C3A0E" font-weight="700">Activation Functions — Interactive Explorer</text>
</svg>