<svg xmlns="http://www.w3.org/2000/svg" viewBox="0 0 1200 600">
<rect width="1200" height="600" fill="#FAF7F0"/>
<rect x="100" y="50" width="1000" height="460" fill="white" rx="8" stroke="#C8BE9A"/><line x1="100" y1="50" x2="100" y2="510" stroke="#E8E0CC" stroke-width="0.8"/><line x1="200" y1="50" x2="200" y2="510" stroke="#E8E0CC" stroke-width="0.8"/><line x1="300" y1="50" x2="300" y2="510" stroke="#E8E0CC" stroke-width="0.8"/><line x1="400" y1="50" x2="400" y2="510" stroke="#E8E0CC" stroke-width="0.8"/><line x1="500" y1="50" x2="500" y2="510" stroke="#E8E0CC" stroke-width="0.8"/><line x1="600" y1="50" x2="600" y2="510" stroke="#E8E0CC" stroke-width="0.8"/><line x1="700" y1="50" x2="700" y2="510" stroke="#E8E0CC" stroke-width="0.8"/><line x1="800" y1="50" x2="800" y2="510" stroke="#E8E0CC" stroke-width="0.8"/><line x1="900" y1="50" x2="900" y2="510" stroke="#E8E0CC" stroke-width="0.8"/><line x1="1000" y1="50" x2="1000" y2="510" stroke="#E8E0CC" stroke-width="0.8"/><line x1="1100" y1="50" x2="1100" y2="510" stroke="#E8E0CC" stroke-width="0.8"/><line x1="100" y1="50" x2="1100" y2="50" stroke="#E8E0CC" stroke-width="0.8"/><line x1="100" y1="107.5" x2="1100" y2="107.5" stroke="#E8E0CC" stroke-width="0.8"/><line x1="100" y1="165" x2="1100" y2="165" stroke="#E8E0CC" stroke-width="0.8"/><line x1="100" y1="222.5" x2="1100" y2="222.5" stroke="#E8E0CC" stroke-width="0.8"/><line x1="100" y1="280" x2="1100" y2="280" stroke="#E8E0CC" stroke-width="0.8"/><line x1="100" y1="337.5" x2="1100" y2="337.5" stroke="#E8E0CC" stroke-width="0.8"/><line x1="100" y1="395" x2="1100" y2="395" stroke="#E8E0CC" stroke-width="0.8"/><line x1="100" y1="452.5" x2="1100" y2="452.5" stroke="#E8E0CC" stroke-width="0.8"/><line x1="100" y1="510" x2="1100" y2="510" stroke="#E8E0CC" stroke-width="0.8"/><polyline points="100,395 110.00000000000001,399.554 120.00000000000001,404.016 130.00000000000003,408.386 140.00000000000003,412.664 150.00000000000006,416.85 160.00000000000006,420.944 170.00000000000006,424.946 180.00000000000006,428.856 190.00000000000009,432.67400000000004 200.00000000000009,436.40000000000003 210.0000000000001,440.03400000000005 220.0000000000001,443.576 230.0000000000001,447.02600000000007 240.00000000000009,450.384 250.00000000000009,453.65000000000003 260.0000000000001,456.824 270.0000000000001,459.906 280.0000000000001,462.896 290.0000000000001,465.79400000000004 300.00000000000006,468.6 310.0000000000001,471.314 320.0000000000001,473.93600000000004 330.0000000000001,476.466 340.0000000000001,478.904 350.0000000000001,481.25 360.00000000000006,483.504 370.00000000000006,485.666 380.00000000000006,487.736 390.0000000000001,489.714 400.0000000000001,491.6 410.0000000000001,493.394 420.00000000000006,495.096 430.00000000000006,496.706 440.00000000000006,498.224 450.0000000000001,499.65000000000003 460.0000000000001,500.98400000000004 470.00000000000006,502.226 480.00000000000006,503.37600000000003 490.00000000000006,504.434 500.00000000000006,505.40000000000003 510.0000000000001,506.274 520.0000000000001,507.056 530.0000000000001,507.746 540.0000000000001,508.344 550.0000000000001,508.85 560.0000000000001,509.264 570.0000000000001,509.586 580.0000000000002,509.81600000000003 590.0000000000002,509.954 600.0000000000002,510 610.0000000000002,509.954 620.0000000000002,509.816 630.0000000000002,509.586 640.0000000000002,509.264 650.0000000000002,508.84999999999997 660.0000000000002,508.344 670.0000000000002,507.746 680.0000000000003,507.056 690.0000000000003,506.274 700.0000000000003,505.4 710.0000000000003,504.43399999999997 720.0000000000003,503.376 730.0000000000003,502.22599999999994 740.0000000000003,500.984 750.0000000000003,499.65 760.0000000000003,498.22399999999993 770.0000000000003,496.70599999999996 780.0000000000003,495.09599999999995 790.0000000000003,493.39399999999995 800.0000000000005,491.5999999999999 810.0000000000005,489.71399999999994 820.0000000000005,487.73599999999993 830.0000000000005,485.66599999999994 840.0000000000005,483.5039999999999 850.0000000000003,481.24999999999994 860.0000000000003,478.90399999999994 870.0000000000003,476.4659999999999 880.0000000000003,473.9359999999999 890.0000000000003,471.3139999999999 900.0000000000003,468.5999999999999 910.0000000000003,465.79399999999987 920.0000000000003,462.8959999999999 930.0000000000005,459.9059999999999 940.0000000000005,456.82399999999984 950.0000000000005,453.64999999999986 960.0000000000005,450.38399999999984 970.0000000000005,447.02599999999984 980.0000000000005,443.57599999999985 990.0000000000005,440.0339999999998 1000.0000000000005,436.39999999999986 1010.0000000000005,432.6739999999998 1020.0000000000005,428.8559999999998 1030.0000000000005,424.9459999999998 1040.0000000000005,420.9439999999998 1050.0000000000005,416.8499999999998 1060.0000000000005,412.66399999999976 1070.0000000000005,408.3859999999998 1080.0000000000005,404.01599999999974 1090.0000000000005,399.55399999999975" fill="none" stroke="#1A56A0" stroke-width="3" stroke-linecap="round" stroke-linejoin="round" /><polyline points="100,395 110.00000000000001,397.3 120.00000000000001,399.6 130.00000000000003,401.9 140.00000000000003,404.2 150.00000000000006,406.5 160.00000000000006,408.8 170.00000000000006,411.1 180.00000000000006,413.40000000000003 190.00000000000009,415.70000000000005 200.00000000000009,418 210.0000000000001,420.3 220.0000000000001,422.6 230.0000000000001,424.90000000000003 240.00000000000009,427.20000000000005 250.00000000000009,429.5 260.0000000000001,431.8 270.0000000000001,434.1 280.0000000000001,436.4 290.0000000000001,438.70000000000005 300.00000000000006,441 310.0000000000001,443.3 320.0000000000001,445.6 330.0000000000001,447.90000000000003 340.0000000000001,450.20000000000005 350.0000000000001,452.5 360.00000000000006,454.8 370.00000000000006,457.1 380.00000000000006,459.40000000000003 390.0000000000001,461.70000000000005 400.0000000000001,464 410.0000000000001,466.3 420.00000000000006,468.6 430.00000000000006,470.90000000000003 440.00000000000006,473.20000000000005 450.0000000000001,475.5 460.0000000000001,477.8 470.00000000000006,480.1 480.00000000000006,482.40000000000003 490.00000000000006,484.70000000000005 500.00000000000006,487 510.0000000000001,489.3 520.0000000000001,491.6 530.0000000000001,493.90000000000003 540.0000000000001,496.20000000000005 550.0000000000001,498.5 560.0000000000001,500.8 570.0000000000001,503.1 580.0000000000002,505.40000000000003 590.0000000000002,507.70000000000005 600.0000000000002,509.99999999999994 610.0000000000002,507.69999999999993 620.0000000000002,505.4 630.0000000000002,503.09999999999997 640.0000000000002,500.79999999999995 650.0000000000002,498.49999999999994 660.0000000000002,496.19999999999993 670.0000000000002,493.9 680.0000000000003,491.59999999999997 690.0000000000003,489.29999999999995 700.0000000000003,486.99999999999994 710.0000000000003,484.69999999999993 720.0000000000003,482.3999999999999 730.0000000000003,480.0999999999999 740.0000000000003,477.79999999999995 750.0000000000003,475.49999999999994 760.0000000000003,473.19999999999993 770.0000000000003,470.8999999999999 780.0000000000003,468.5999999999999 790.0000000000003,466.29999999999995 800.0000000000005,463.99999999999994 810.0000000000005,461.69999999999993 820.0000000000005,459.3999999999999 830.0000000000005,457.0999999999999 840.0000000000005,454.7999999999999 850.0000000000003,452.49999999999994 860.0000000000003,450.19999999999993 870.0000000000003,447.8999999999999 880.0000000000003,445.5999999999999 890.0000000000003,443.2999999999999 900.0000000000003,440.9999999999999 910.0000000000003,438.69999999999993 920.0000000000003,436.3999999999999 930.0000000000005,434.0999999999999 940.0000000000005,431.7999999999999 950.0000000000005,429.4999999999999 960.0000000000005,427.19999999999993 970.0000000000005,424.89999999999986 980.0000000000005,422.5999999999999 990.0000000000005,420.2999999999999 1000.0000000000005,417.9999999999999 1010.0000000000005,415.6999999999999 1020.0000000000005,413.39999999999986 1030.0000000000005,411.0999999999999 1040.0000000000005,408.7999999999999 1050.0000000000005,406.4999999999999 1060.0000000000005,404.1999999999999 1070.0000000000005,401.89999999999986 1080.0000000000005,399.5999999999999 1090.0000000000005,397.29999999999984" fill="none" stroke="#2D5A1B" stroke-width="3" stroke-linecap="round" stroke-linejoin="round" /><polyline points="355,244.62481999410846 360,283.89702151712424 365,306.6215164737303 370,322.5673753851638 375,334.79602984336134 380,344.6710480725079 385.00000000000006,352.9197330383622 390,359.97616043827986 395,366.120263432921 400,371.54312750251734 405,376.3809980568738 410,380.7344278066764 415,384.6797334880464 420,388.27619459882357 425,391.57076242293977 430,394.6012460736474 435,397.3985308429063 440,399.9881614080935 445.00000000000006,402.39149630710506 450.00000000000006,404.62656583447216 455.00000000000006,406.70872029732004 460.00000000000006,408.6511272141242 465.00000000000006,410.46515778388243 470.00000000000006,412.16069092284044 475,413.7463550696289 480,415.2297224068445 485,416.6174662726509 490,417.9154897898669 495,419.1290317654674 500,420.26275447478156 505,421.3208168836078 510.00000000000006,422.30693606997994 515,423.22443901067265 520,424.07630644331823 525,424.86521016600994 530,425.59354486577695 535,426.26345535592554 540,426.87685993572944 545,427.43547045378955 550,427.9408095506916 555,428.3942254714461 560,428.7969047690823 565,429.149883164236 570,429.4540547789406 575.0000000000001,429.71017992402994 580.0000000000001,429.91889158693823 585.0000000000001,430.08070073894487 590.0000000000001,430.1960005570053 595.0000000000001,430.2650696343793 600.0000000000001,430.2880742356063 605.0000000000001,430.26506963437924 610.0000000000001,430.1960005570053 615.0000000000001,430.08070073894487 620.0000000000001,429.91889158693823 625.0000000000001,429.71017992402994 630.0000000000001,429.4540547789406 635.0000000000001,429.1498831642359 640.0000000000001,428.7969047690823 645.0000000000001,428.394225471446 650.0000000000001,427.9408095506916 655.0000000000001,427.43547045378955 660.0000000000001,426.8768599357294 665.0000000000001,426.2634553559255 670.0000000000002,425.59354486577695 675.0000000000002,424.8652101660099 680.0000000000002,424.07630644331823 685.0000000000002,423.22443901067265 690.0000000000002,422.3069360699799 695.0000000000002,421.3208168836078 700.0000000000002,420.26275447478156 705.0000000000002,419.12903176546735 710.0000000000002,417.91548978986685 715.0000000000002,416.61746627265086 720.0000000000002,415.2297224068444 725.0000000000002,413.7463550696288 730.0000000000002,412.16069092284033 735.0000000000002,410.4651577838823 740.0000000000002,408.6511272141241 745.0000000000002,406.70872029732 750.0000000000002,404.62656583447205 755.0000000000002,402.39149630710494 760.0000000000002,399.9881614080934 765.0000000000002,397.39853084290615 770.0000000000002,394.6012460736473 775.0000000000002,391.5707624229396 780.0000000000002,388.2761945988234 785.0000000000002,384.67973348804617 790.0000000000002,380.7344278066762 795.0000000000002,376.3809980568736 800.0000000000003,371.5431275025171 805.0000000000003,366.12026343292064 810.0000000000003,359.9761604382795 815.0000000000003,352.91973303836176 820.0000000000003,344.67104807250735 825.0000000000003,334.7960298433607 830.0000000000003,322.5673753851629 835.0000000000003,306.6215164737291 840.0000000000003,283.8970215171224 845.0000000000003,244.62481999410466" fill="none" stroke="#E8630A" stroke-width="3" stroke-linecap="round" stroke-linejoin="round" /><polyline points="100,337.5 110.00000000000001,339.8 120.00000000000001,342.1 130.00000000000003,344.4 140.00000000000003,346.70000000000005 150.00000000000006,349 160.00000000000006,351.3 170.00000000000006,353.6 180.00000000000006,355.9 190.00000000000009,358.20000000000005 200.00000000000009,360.5 210.0000000000001,362.8 220.0000000000001,365.1 230.0000000000001,367.40000000000003 240.00000000000009,369.70000000000005 250.00000000000009,372 260.0000000000001,374.30000000000007 270.0000000000001,376.6 280.0000000000001,378.9 290.0000000000001,381.20000000000005 300.00000000000006,383.5 310.0000000000001,385.8 320.0000000000001,388.1 330.0000000000001,390.40000000000003 340.0000000000001,392.70000000000005 350.0000000000001,395 360.00000000000006,397.3 370.00000000000006,399.6 380.00000000000006,401.90000000000003 390.0000000000001,404.20000000000005 400.0000000000001,406.5 410.0000000000001,408.8 420.00000000000006,411.1 430.00000000000006,413.40000000000003 440.00000000000006,415.70000000000005 450.0000000000001,418 460.0000000000001,420.3 470.00000000000006,422.6 480.00000000000006,424.90000000000003 490.00000000000006,427.20000000000005 500.00000000000006,429.5 510.0000000000001,431.8 520.0000000000001,434.1 530.0000000000001,436.40000000000003 540.0000000000001,438.70000000000005 550.0000000000001,441 560.0000000000001,443.3 570.0000000000001,445.6 580.0000000000002,447.90000000000003 590.0000000000002,450.20000000000005 600.0000000000002,452.50000000000006 610.0000000000002,454.80000000000007 620.0000000000002,457.1 630.0000000000002,459.40000000000003 640.0000000000002,461.70000000000005 650.0000000000002,464.00000000000006 660.0000000000002,466.30000000000007 670.0000000000002,468.6 680.0000000000003,470.90000000000003 690.0000000000003,473.20000000000005 700.0000000000003,475.50000000000006 710.0000000000003,477.80000000000007 720.0000000000003,480.1000000000001 730.0000000000003,482.4000000000001 740.0000000000003,484.70000000000005 750.0000000000003,487.00000000000006 760.0000000000003,489.30000000000007 770.0000000000003,491.6000000000001 780.0000000000003,493.9000000000001 790.0000000000003,496.2000000000001 800.0000000000005,498.50000000000006 810.0000000000005,500.80000000000007 820.0000000000005,503.1000000000001 830.0000000000005,505.4000000000001 840.0000000000005,507.7000000000001 850.0000000000003,510 860.0000000000003,510 870.0000000000003,510 880.0000000000003,510 890.0000000000003,510 900.0000000000003,510 910.0000000000003,510 920.0000000000003,510 930.0000000000005,510 940.0000000000005,510 950.0000000000005,510 960.0000000000005,510 970.0000000000005,510 980.0000000000005,510 990.0000000000005,510 1000.0000000000005,510 1010.0000000000005,510 1020.0000000000005,510 1030.0000000000005,510 1040.0000000000005,510 1050.0000000000005,510 1060.0000000000005,510 1070.0000000000005,510 1080.0000000000005,510 1090.0000000000005,510" fill="none" stroke="#7B3FC4" stroke-width="3" stroke-linecap="round" stroke-linejoin="round" /><line x1="600" y1="50" x2="600" y2="510" stroke="#1C3A0E" stroke-width="1.5" stroke-dasharray="5 3" opacity="0.5"/><text x="608" y="75" font-family="monospace" font-size="12" fill="#1C3A0E">y=0.5</text><line x1="100" y1="510" x2="1100" y2="510" stroke="#C8BE9A" stroke-width="1.5"/><text x="1095" y="502" font-family="monospace" font-size="12" fill="#888">ŷ</text><text x="108" y="68" font-family="monospace" font-size="12" fill="#888">L(ŷ)</text><line x1="120" y1="545" x2="155" y2="545" stroke="#1A56A0" stroke-width="3"/><text x="163" y="550" font-family="sans-serif" font-size="14" fill="#888">MSE</text><line x1="365" y1="545" x2="400" y2="545" stroke="#2D5A1B" stroke-width="3"/><text x="408" y="550" font-family="sans-serif" font-size="14" fill="#888">MAE</text><line x1="610" y1="545" x2="645" y2="545" stroke="#E8630A" stroke-width="3"/><text x="653" y="550" font-family="sans-serif" font-size="14" fill="#888">Cross-Entropy</text><line x1="855" y1="545" x2="890" y2="545" stroke="#7B3FC4" stroke-width="3"/><text x="898" y="550" font-family="sans-serif" font-size="14" fill="#888">Hinge</text>
<text x="40" y="570" font-family="Georgia,serif" font-size="18" fill="#1C3A0E" font-weight="700">Loss Functions — Interactive Explorer</text>
</svg>