<svg xmlns="http://www.w3.org/2000/svg" viewBox="0 0 1200 600">
<rect width="1200" height="600" fill="#FAF7F0"/>
<circle cx="200" cy="160" r="26" fill="#1A56A0" stroke="white" stroke-width="2"/><text x="200" y="160" text-anchor="middle" dominant-baseline="central" font-family="monospace" font-size="22.099999999999998" fill="white" font-weight="700">x₁</text><line x1="226" y1="160" x2="664" y2="280" stroke="#2D5A1B" stroke-width="2.5"/><text x="450" y="208" text-anchor="middle" font-family="monospace" font-size="14" fill="#2D5A1B" font-weight="600">w=0.9</text><circle cx="200" cy="280" r="26" fill="#1A56A0" stroke="white" stroke-width="2"/><text x="200" y="280" text-anchor="middle" dominant-baseline="central" font-family="monospace" font-size="22.099999999999998" fill="white" font-weight="700">x₂</text><line x1="226" y1="280" x2="664" y2="280" stroke="#2D5A1B" stroke-width="2.5"/><text x="450" y="268" text-anchor="middle" font-family="monospace" font-size="14" fill="#2D5A1B" font-weight="600">w=0.6</text><circle cx="200" cy="400" r="26" fill="#1A56A0" stroke="white" stroke-width="2"/><text x="200" y="400" text-anchor="middle" dominant-baseline="central" font-family="monospace" font-size="22.099999999999998" fill="white" font-weight="700">x₃</text><line x1="226" y1="400" x2="664" y2="280" stroke="#2D5A1B" stroke-width="2.5"/><text x="450" y="328" text-anchor="middle" font-family="monospace" font-size="14" fill="#2D5A1B" font-weight="600">w=0.3</text><circle cx="700" cy="280" r="50" fill="#2D5A1B" stroke="white" stroke-width="3"/><text x="700" y="272" text-anchor="middle" font-family="monospace" font-size="13" fill="white">Σ</text><text x="700" y="292" text-anchor="middle" font-family="monospace" font-size="13" fill="white">θ(·)</text><circle cx="460" cy="490" r="22" fill="#888" stroke="white" stroke-width="2"/><text x="460" y="490" text-anchor="middle" dominant-baseline="central" font-family="monospace" font-size="18.7" fill="white" font-weight="700">b</text><line x1="476" y1="474" x2="660" y2="310" stroke="#888" stroke-width="1.5" stroke-dasharray="5 3"/><line x1="750" y1="280" x2="900" y2="280" stroke="#E8630A" stroke-width="3"/><circle cx="960" cy="280" r="26" fill="#E8630A" stroke="white" stroke-width="2"/><text x="960" y="280" text-anchor="middle" dominant-baseline="central" font-family="monospace" font-size="22.099999999999998" fill="white" font-weight="700">ŷ</text><text x="960" y="335" text-anchor="middle" font-family="sans-serif" font-size="14" fill="#888">Output</text><rect x="350" y="470" width="420" height="45" rx="6" fill="white" stroke="#C8BE9A"/><text x="560" y="497" text-anchor="middle" dominant-baseline="central" font-family="monospace" font-size="16" fill="#1C3A0E">ŷ = θ(w·x + b)</text><rect x="1020" y="80" width="160" height="160" rx="6" fill="white" stroke="#C8BE9A"/><rect x="1020" y="80" width="160" height="80" rx="6" fill="#1A56A0" opacity="0.2"/><rect x="1020" y="160" width="160" height="80" rx="0" fill="#E8630A" opacity="0.2"/><line x1="1020" y1="160" x2="1180" y2="160" stroke="#1C3A0E" stroke-width="2"/><text x="1100" y="115" text-anchor="middle" font-family="sans-serif" font-size="12" fill="#1A56A0">Class 1</text><text x="1100" y="208" text-anchor="middle" font-family="sans-serif" font-size="12" fill="#E8630A">Class 0</text><text x="1100" y="265" text-anchor="middle" font-family="sans-serif" font-size="12" fill="#888">Decision boundary</text>
<text x="40" y="570" font-family="Georgia,serif" font-size="18" fill="#1C3A0E" font-weight="700">Single-Layer Perceptron — Neuron & Lever Explainer</text>
</svg>