<svg xmlns="http://www.w3.org/2000/svg" viewBox="0 0 1200 600">
<rect width="1200" height="600" fill="#FAF7F0"/>
<rect x="80" y="60" width="500" height="440" fill="white" rx="8" stroke="#C8BE9A"/><text x="330" y="90" text-anchor="middle" font-family="sans-serif" font-size="16" fill="#1A56A0" font-weight="600">L1 Regularization (Sparse)</text><rect x="81" y="470" width="23" height="0" fill="#1A56A0" opacity="0.7" rx="2"/><rect x="106" y="466.4" width="23" height="3.6" fill="#1A56A0" opacity="0.7" rx="2"/><rect x="131" y="468.2" width="23" height="1.8" fill="#1A56A0" opacity="0.7" rx="2"/><rect x="156" y="470" width="23" height="0" fill="#1A56A0" opacity="0.7" rx="2"/><rect x="181" y="146" width="23" height="324" fill="#1A56A0" opacity="0.7" rx="2"/><rect x="206" y="461" width="23" height="9" fill="#1A56A0" opacity="0.7" rx="2"/><rect x="231" y="466.4" width="23" height="3.6" fill="#1A56A0" opacity="0.7" rx="2"/><rect x="256" y="468.2" width="23" height="1.8" fill="#1A56A0" opacity="0.7" rx="2"/><rect x="281" y="470" width="23" height="0" fill="#1A56A0" opacity="0.7" rx="2"/><rect x="306" y="464.6" width="23" height="5.4" fill="#1A56A0" opacity="0.7" rx="2"/><rect x="331" y="466.4" width="23" height="3.6" fill="#1A56A0" opacity="0.7" rx="2"/><rect x="356" y="470" width="23" height="0" fill="#1A56A0" opacity="0.7" rx="2"/><rect x="381" y="468.2" width="23" height="1.8" fill="#1A56A0" opacity="0.7" rx="2"/><rect x="406" y="470" width="23" height="0" fill="#1A56A0" opacity="0.7" rx="2"/><rect x="431" y="455.6" width="23" height="14.4" fill="#1A56A0" opacity="0.7" rx="2"/><rect x="456" y="464.6" width="23" height="5.4" fill="#1A56A0" opacity="0.7" rx="2"/><rect x="481" y="468.2" width="23" height="1.8" fill="#1A56A0" opacity="0.7" rx="2"/><rect x="506" y="470" width="23" height="0" fill="#1A56A0" opacity="0.7" rx="2"/><rect x="531" y="470" width="23" height="0" fill="#1A56A0" opacity="0.7" rx="2"/><rect x="556" y="468.2" width="23" height="1.8" fill="#1A56A0" opacity="0.7" rx="2"/><line x1="90" y1="470" x2="570" y2="470" stroke="#C8BE9A" stroke-width="1.5"/><text x="330" y="495" text-anchor="middle" font-family="monospace" font-size="12" fill="#888">Weight value — spike at w=0</text><rect x="640" y="60" width="500" height="440" fill="white" rx="8" stroke="#C8BE9A"/><text x="890" y="90" text-anchor="middle" font-family="sans-serif" font-size="16" fill="#2D5A1B" font-weight="600">L2 Regularization (Smooth)</text><rect x="641" y="467.5" width="23" height="2.5" fill="#2D5A1B" opacity="0.7" rx="2"/><rect x="666" y="465" width="23" height="5" fill="#2D5A1B" opacity="0.7" rx="2"/><rect x="691" y="457.5" width="23" height="12.5" fill="#2D5A1B" opacity="0.7" rx="2"/><rect x="716" y="440" width="23" height="30" fill="#2D5A1B" opacity="0.7" rx="2"/><rect x="741" y="415" width="23" height="55" fill="#2D5A1B" opacity="0.7" rx="2"/><rect x="766" y="382.5" width="23" height="87.5" fill="#2D5A1B" opacity="0.7" rx="2"/><rect x="791" y="345" width="23" height="125" fill="#2D5A1B" opacity="0.7" rx="2"/><rect x="816" y="315" width="23" height="155" fill="#2D5A1B" opacity="0.7" rx="2"/><rect x="841" y="295" width="23" height="175" fill="#2D5A1B" opacity="0.7" rx="2"/><rect x="866" y="307.5" width="23" height="162.5" fill="#2D5A1B" opacity="0.7" rx="2"/><rect x="891" y="332.5" width="23" height="137.5" fill="#2D5A1B" opacity="0.7" rx="2"/><rect x="916" y="370" width="23" height="100" fill="#2D5A1B" opacity="0.7" rx="2"/><rect x="941" y="407.5" width="23" height="62.5" fill="#2D5A1B" opacity="0.7" rx="2"/><rect x="966" y="435" width="23" height="35" fill="#2D5A1B" opacity="0.7" rx="2"/><rect x="991" y="452.5" width="23" height="17.5" fill="#2D5A1B" opacity="0.7" rx="2"/><rect x="1016" y="462.5" width="23" height="7.5" fill="#2D5A1B" opacity="0.7" rx="2"/><rect x="1041" y="465" width="23" height="5" fill="#2D5A1B" opacity="0.7" rx="2"/><rect x="1066" y="467.5" width="23" height="2.5" fill="#2D5A1B" opacity="0.7" rx="2"/><rect x="1091" y="467.5" width="23" height="2.5" fill="#2D5A1B" opacity="0.7" rx="2"/><rect x="1116" y="470" width="23" height="0" fill="#2D5A1B" opacity="0.7" rx="2"/><line x1="650" y1="470" x2="1130" y2="470" stroke="#C8BE9A" stroke-width="1.5"/><text x="890" y="495" text-anchor="middle" font-family="monospace" font-size="12" fill="#888">Weight value — Gaussian spread</text>
<text x="40" y="570" font-family="Georgia,serif" font-size="18" fill="#1C3A0E" font-weight="700">Regularization (L1/L2) — Interactive Explorer</text>
</svg>