<svg xmlns="http://www.w3.org/2000/svg" viewBox="0 0 1200 600">
<rect width="1200" height="600" fill="#FAF7F0"/>
<rect x="100" y="30" width="1000" height="500" fill="white" rx="8" stroke="#C8BE9A"/><ellipse cx="0" cy="0" rx="420" ry="280" fill="#E8F0FF" stroke="rgba(100,140,220,0.35)" stroke-width="0" transform="translate(650,305) rotate(-15)"/><ellipse cx="0" cy="0" rx="320" ry="180" fill="#D0E4FF" stroke="rgba(100,140,220,0.35)" stroke-width="1.5" transform="translate(650,305) rotate(-15)"/><ellipse cx="0" cy="0" rx="230" ry="110" fill="#B8CEFF" stroke="rgba(100,140,220,0.35)" stroke-width="1.5" transform="translate(650,305) rotate(-10)"/><ellipse cx="0" cy="0" rx="150" ry="60" fill="#90AEFF" stroke="rgba(100,140,220,0.35)" stroke-width="1.5" transform="translate(650,305) rotate(-8)"/><ellipse cx="0" cy="0" rx="90" ry="32" fill="#6888EE" stroke="rgba(100,140,220,0.35)" stroke-width="1.5" transform="translate(650,305) rotate(-5)"/><ellipse cx="0" cy="0" rx="45" ry="14" fill="#1A56A0" stroke="rgba(100,140,220,0.35)" stroke-width="1.5" transform="translate(650,305) rotate(-3)"/><ellipse cx="0" cy="0" rx="18" ry="5" fill="#1C3A0E" stroke="rgba(100,140,220,0.35)" stroke-width="1.5" transform="translate(650,305) rotate(0)"/><text x="650" y="305" text-anchor="middle" dominant-baseline="central" font-size="20" fill="white">★</text><polyline points="180,110 280,170 380,230 460,290 540,330 620,360 680,370 720,375 645,302" fill="none" stroke="#888" stroke-width="2.5" stroke-linecap="round" stroke-linejoin="round" /><polyline points="220,130 350,180 480,250 580,300 660,340 710,360 647,303" fill="none" stroke="#1A56A0" stroke-width="2.5" stroke-linecap="round" stroke-linejoin="round" /><polyline points="200,120 400,210 600,330 700,360 650,305" fill="none" stroke="#2D5A1B" stroke-width="2.5" stroke-linecap="round" stroke-linejoin="round" /><polyline points="230,140 420,230 610,340 652,307" fill="none" stroke="#E8630A" stroke-width="2.5" stroke-linecap="round" stroke-linejoin="round" /><polyline points="210,125 360,190 510,270 620,335 648,306" fill="none" stroke="#7B3FC4" stroke-width="2.5" stroke-linecap="round" stroke-linejoin="round" /><circle cx="180" cy="110" r="6" fill="#888" stroke="white" stroke-width="2"/><circle cx="220" cy="130" r="6" fill="#1A56A0" stroke="white" stroke-width="2"/><circle cx="200" cy="120" r="6" fill="#2D5A1B" stroke="white" stroke-width="2"/><circle cx="230" cy="140" r="6" fill="#E8630A" stroke="white" stroke-width="2"/><circle cx="210" cy="125" r="6" fill="#7B3FC4" stroke="white" stroke-width="2"/><line x1="120" y1="565" x2="155" y2="565" stroke="#888" stroke-width="3"/><text x="162" y="570" font-family="sans-serif" font-size="14" fill="#888">SGD</text><line x1="305" y1="565" x2="340" y2="565" stroke="#1A56A0" stroke-width="3"/><text x="347" y="570" font-family="sans-serif" font-size="14" fill="#888">Momentum</text><line x1="490" y1="565" x2="525" y2="565" stroke="#2D5A1B" stroke-width="3"/><text x="532" y="570" font-family="sans-serif" font-size="14" fill="#888">Adam</text><line x1="675" y1="565" x2="710" y2="565" stroke="#E8630A" stroke-width="3"/><text x="717" y="570" font-family="sans-serif" font-size="14" fill="#888">RMSProp</text><line x1="860" y1="565" x2="895" y2="565" stroke="#7B3FC4" stroke-width="3"/><text x="902" y="570" font-family="sans-serif" font-size="14" fill="#888">AdaGrad</text>
<text x="40" y="570" font-family="Georgia,serif" font-size="18" fill="#1C3A0E" font-weight="700">Gradient Descent — Interactive Explorer</text>
</svg>